<mxfile host="app.diagrams.net" modified="2022-12-17T11:15:49.465Z" agent="5.0 (Macintosh; Intel Mac OS X 10_15_7) AppleWebKit/605.1.15 (KHTML, like Gecko) Version/16.1 Safari/605.1.15" etag="sigd421Gvo9q04nE0-gl" version="20.7.4" type="github">
  <diagram id="C5RBs43oDa-KdzZeNtuy" name="Page-1">
    <mxGraphModel dx="1781" dy="675" grid="1" gridSize="10" guides="1" tooltips="1" connect="1" arrows="1" fold="1" page="1" pageScale="1" pageWidth="827" pageHeight="1169" math="0" shadow="0">
      <root>
        <mxCell id="WIyWlLk6GJQsqaUBKTNV-0" />
        <mxCell id="WIyWlLk6GJQsqaUBKTNV-1" parent="WIyWlLk6GJQsqaUBKTNV-0" />
        <mxCell id="VSxFvRO0NKnhs1YxXdcT-14" style="edgeStyle=orthogonalEdgeStyle;rounded=0;orthogonalLoop=1;jettySize=auto;html=1;exitX=0;exitY=0.5;exitDx=0;exitDy=0;entryX=1;entryY=0.5;entryDx=0;entryDy=0;" edge="1" parent="WIyWlLk6GJQsqaUBKTNV-1" source="WIyWlLk6GJQsqaUBKTNV-6" target="VSxFvRO0NKnhs1YxXdcT-18">
          <mxGeometry relative="1" as="geometry">
            <mxPoint x="110" y="423" as="targetPoint" />
          </mxGeometry>
        </mxCell>
        <mxCell id="VSxFvRO0NKnhs1YxXdcT-15" value="Evet" style="edgeLabel;html=1;align=center;verticalAlign=middle;resizable=0;points=[];" vertex="1" connectable="0" parent="VSxFvRO0NKnhs1YxXdcT-14">
          <mxGeometry x="-0.6627" relative="1" as="geometry">
            <mxPoint x="-8" y="8" as="offset" />
          </mxGeometry>
        </mxCell>
        <mxCell id="VSxFvRO0NKnhs1YxXdcT-17" value="Hayır" style="edgeStyle=orthogonalEdgeStyle;rounded=0;orthogonalLoop=1;jettySize=auto;html=1;exitX=0.5;exitY=1;exitDx=0;exitDy=0;entryX=0.5;entryY=0;entryDx=0;entryDy=0;" edge="1" parent="WIyWlLk6GJQsqaUBKTNV-1" source="WIyWlLk6GJQsqaUBKTNV-6" target="VSxFvRO0NKnhs1YxXdcT-16">
          <mxGeometry y="3" relative="1" as="geometry">
            <mxPoint y="1" as="offset" />
          </mxGeometry>
        </mxCell>
        <mxCell id="WIyWlLk6GJQsqaUBKTNV-6" value="paragraf[i] == kelime" style="rhombus;whiteSpace=wrap;html=1;shadow=0;fontFamily=Helvetica;fontSize=12;align=center;strokeWidth=1;spacing=6;spacingTop=-4;" parent="WIyWlLk6GJQsqaUBKTNV-1" vertex="1">
          <mxGeometry x="370" y="320" width="120" height="105" as="geometry" />
        </mxCell>
        <mxCell id="VSxFvRO0NKnhs1YxXdcT-6" style="edgeStyle=orthogonalEdgeStyle;rounded=0;orthogonalLoop=1;jettySize=auto;html=1;exitX=0.5;exitY=1;exitDx=0;exitDy=0;exitPerimeter=0;entryX=0.5;entryY=0;entryDx=0;entryDy=0;" edge="1" parent="WIyWlLk6GJQsqaUBKTNV-1" source="VSxFvRO0NKnhs1YxXdcT-0" target="VSxFvRO0NKnhs1YxXdcT-5">
          <mxGeometry relative="1" as="geometry" />
        </mxCell>
        <mxCell id="VSxFvRO0NKnhs1YxXdcT-0" value="Başla" style="strokeWidth=1;html=1;shape=mxgraph.flowchart.start_2;whiteSpace=wrap;strokeColor=default;" vertex="1" parent="WIyWlLk6GJQsqaUBKTNV-1">
          <mxGeometry x="540" y="60" width="80" height="80" as="geometry" />
        </mxCell>
        <mxCell id="VSxFvRO0NKnhs1YxXdcT-1" value="Dur" style="strokeWidth=1;html=1;shape=mxgraph.flowchart.start_2;whiteSpace=wrap;strokeColor=default;" vertex="1" parent="WIyWlLk6GJQsqaUBKTNV-1">
          <mxGeometry x="-45" y="503.75" width="80" height="80" as="geometry" />
        </mxCell>
        <mxCell id="VSxFvRO0NKnhs1YxXdcT-43" style="edgeStyle=orthogonalEdgeStyle;rounded=0;orthogonalLoop=1;jettySize=auto;html=1;entryX=0.5;entryY=0;entryDx=0;entryDy=0;entryPerimeter=0;" edge="1" parent="WIyWlLk6GJQsqaUBKTNV-1" source="VSxFvRO0NKnhs1YxXdcT-2" target="VSxFvRO0NKnhs1YxXdcT-1">
          <mxGeometry relative="1" as="geometry" />
        </mxCell>
        <mxCell id="VSxFvRO0NKnhs1YxXdcT-2" value="kelimesayar, &lt;br&gt;cumlesayar, &lt;br&gt;epostasayar,&lt;br&gt;&amp;nbsp;seslisayar,&amp;nbsp;&lt;br&gt;sessizsayar" style="strokeWidth=1;html=1;shape=mxgraph.flowchart.document2;whiteSpace=wrap;size=0.16666666666666666;" vertex="1" parent="WIyWlLk6GJQsqaUBKTNV-1">
          <mxGeometry x="-90" y="350" width="170" height="120" as="geometry" />
        </mxCell>
        <mxCell id="VSxFvRO0NKnhs1YxXdcT-8" style="edgeStyle=orthogonalEdgeStyle;rounded=0;orthogonalLoop=1;jettySize=auto;html=1;entryX=1;entryY=0.5;entryDx=0;entryDy=0;" edge="1" parent="WIyWlLk6GJQsqaUBKTNV-1" source="VSxFvRO0NKnhs1YxXdcT-5" target="VSxFvRO0NKnhs1YxXdcT-7">
          <mxGeometry relative="1" as="geometry">
            <mxPoint x="490" y="230" as="targetPoint" />
          </mxGeometry>
        </mxCell>
        <mxCell id="VSxFvRO0NKnhs1YxXdcT-5" value="char paragraf[1000]" style="shape=parallelogram;perimeter=parallelogramPerimeter;whiteSpace=wrap;html=1;dashed=0;strokeWidth=1;" vertex="1" parent="WIyWlLk6GJQsqaUBKTNV-1">
          <mxGeometry x="510" y="170" width="140" height="70" as="geometry" />
        </mxCell>
        <mxCell id="VSxFvRO0NKnhs1YxXdcT-10" style="edgeStyle=orthogonalEdgeStyle;rounded=0;orthogonalLoop=1;jettySize=auto;html=1;" edge="1" parent="WIyWlLk6GJQsqaUBKTNV-1" source="VSxFvRO0NKnhs1YxXdcT-7" target="VSxFvRO0NKnhs1YxXdcT-9">
          <mxGeometry relative="1" as="geometry" />
        </mxCell>
        <mxCell id="VSxFvRO0NKnhs1YxXdcT-7" value="kelime = &quot; &quot;, &lt;br&gt;cumle = &quot; &quot;,&amp;nbsp;&lt;br&gt;eposta = &quot;@&quot;,&amp;nbsp;&lt;br&gt;sesli = &quot;a, e, ı, i ,o, ö, u, ü&quot;" style="html=1;dashed=0;whitespace=wrap;strokeWidth=1;" vertex="1" parent="WIyWlLk6GJQsqaUBKTNV-1">
          <mxGeometry x="330" y="170" width="150" height="70" as="geometry" />
        </mxCell>
        <mxCell id="VSxFvRO0NKnhs1YxXdcT-12" style="edgeStyle=orthogonalEdgeStyle;rounded=0;orthogonalLoop=1;jettySize=auto;html=1;entryX=0.5;entryY=0;entryDx=0;entryDy=0;" edge="1" parent="WIyWlLk6GJQsqaUBKTNV-1" source="VSxFvRO0NKnhs1YxXdcT-9" target="VSxFvRO0NKnhs1YxXdcT-11">
          <mxGeometry relative="1" as="geometry" />
        </mxCell>
        <mxCell id="VSxFvRO0NKnhs1YxXdcT-9" value="kelimesayar = 0,&lt;br&gt;cumlesayar = 0,&lt;br&gt;epostasayar = 0,&lt;br&gt;seslisayar = 0,&amp;nbsp;&lt;br&gt;sessizsayar = 0" style="html=1;dashed=0;whitespace=wrap;strokeWidth=1;" vertex="1" parent="WIyWlLk6GJQsqaUBKTNV-1">
          <mxGeometry x="145" y="170" width="150" height="70" as="geometry" />
        </mxCell>
        <mxCell id="VSxFvRO0NKnhs1YxXdcT-13" value="" style="edgeStyle=orthogonalEdgeStyle;rounded=0;orthogonalLoop=1;jettySize=auto;html=1;entryX=0.5;entryY=0;entryDx=0;entryDy=0;" edge="1" parent="WIyWlLk6GJQsqaUBKTNV-1" source="VSxFvRO0NKnhs1YxXdcT-11" target="WIyWlLk6GJQsqaUBKTNV-6">
          <mxGeometry relative="1" as="geometry">
            <Array as="points">
              <mxPoint x="430" y="305" />
            </Array>
          </mxGeometry>
        </mxCell>
        <mxCell id="VSxFvRO0NKnhs1YxXdcT-42" style="edgeStyle=orthogonalEdgeStyle;rounded=0;orthogonalLoop=1;jettySize=auto;html=1;exitX=0;exitY=0.5;exitDx=0;exitDy=0;entryX=0.5;entryY=0;entryDx=0;entryDy=0;entryPerimeter=0;" edge="1" parent="WIyWlLk6GJQsqaUBKTNV-1" source="VSxFvRO0NKnhs1YxXdcT-11" target="VSxFvRO0NKnhs1YxXdcT-2">
          <mxGeometry relative="1" as="geometry" />
        </mxCell>
        <mxCell id="VSxFvRO0NKnhs1YxXdcT-11" value="i = 0, 0 &amp;lt;= i &amp;lt;= paragraf.length(), i++" style="shape=hexagon;perimeter=hexagonPerimeter2;whiteSpace=wrap;html=1;size=0.25;strokeWidth=1;" vertex="1" parent="WIyWlLk6GJQsqaUBKTNV-1">
          <mxGeometry x="110" y="270" width="220" height="70" as="geometry" />
        </mxCell>
        <mxCell id="VSxFvRO0NKnhs1YxXdcT-21" value="Evet" style="edgeStyle=orthogonalEdgeStyle;rounded=0;orthogonalLoop=1;jettySize=auto;html=1;entryX=1;entryY=0.5;entryDx=0;entryDy=0;" edge="1" parent="WIyWlLk6GJQsqaUBKTNV-1" source="VSxFvRO0NKnhs1YxXdcT-16" target="VSxFvRO0NKnhs1YxXdcT-20">
          <mxGeometry x="-0.5" y="-7" relative="1" as="geometry">
            <mxPoint as="offset" />
          </mxGeometry>
        </mxCell>
        <mxCell id="VSxFvRO0NKnhs1YxXdcT-23" style="edgeStyle=orthogonalEdgeStyle;rounded=0;orthogonalLoop=1;jettySize=auto;html=1;entryX=0.5;entryY=0;entryDx=0;entryDy=0;" edge="1" parent="WIyWlLk6GJQsqaUBKTNV-1" source="VSxFvRO0NKnhs1YxXdcT-16" target="VSxFvRO0NKnhs1YxXdcT-24">
          <mxGeometry relative="1" as="geometry">
            <mxPoint x="430" y="620" as="targetPoint" />
          </mxGeometry>
        </mxCell>
        <mxCell id="VSxFvRO0NKnhs1YxXdcT-25" value="Hayır" style="edgeLabel;html=1;align=center;verticalAlign=middle;resizable=0;points=[];" vertex="1" connectable="0" parent="VSxFvRO0NKnhs1YxXdcT-23">
          <mxGeometry x="0.1111" y="2" relative="1" as="geometry">
            <mxPoint as="offset" />
          </mxGeometry>
        </mxCell>
        <mxCell id="VSxFvRO0NKnhs1YxXdcT-16" value="paragraf[i] == cumle" style="rhombus;whiteSpace=wrap;html=1;shadow=0;fontFamily=Helvetica;fontSize=12;align=center;strokeWidth=1;spacing=6;spacingTop=-4;" vertex="1" parent="WIyWlLk6GJQsqaUBKTNV-1">
          <mxGeometry x="370" y="480" width="120" height="105" as="geometry" />
        </mxCell>
        <mxCell id="VSxFvRO0NKnhs1YxXdcT-19" style="edgeStyle=orthogonalEdgeStyle;rounded=0;orthogonalLoop=1;jettySize=auto;html=1;exitX=0.5;exitY=0;exitDx=0;exitDy=0;" edge="1" parent="WIyWlLk6GJQsqaUBKTNV-1" source="VSxFvRO0NKnhs1YxXdcT-18">
          <mxGeometry relative="1" as="geometry">
            <mxPoint x="250" y="340" as="targetPoint" />
          </mxGeometry>
        </mxCell>
        <mxCell id="VSxFvRO0NKnhs1YxXdcT-18" value="kelimesayar++" style="html=1;dashed=0;whitespace=wrap;strokeWidth=1;" vertex="1" parent="WIyWlLk6GJQsqaUBKTNV-1">
          <mxGeometry x="210" y="400" width="120" height="57.5" as="geometry" />
        </mxCell>
        <mxCell id="VSxFvRO0NKnhs1YxXdcT-22" style="edgeStyle=orthogonalEdgeStyle;rounded=0;orthogonalLoop=1;jettySize=auto;html=1;entryX=0.559;entryY=1;entryDx=0;entryDy=0;exitX=0;exitY=0.5;exitDx=0;exitDy=0;entryPerimeter=0;" edge="1" parent="WIyWlLk6GJQsqaUBKTNV-1" source="VSxFvRO0NKnhs1YxXdcT-20" target="VSxFvRO0NKnhs1YxXdcT-11">
          <mxGeometry relative="1" as="geometry">
            <Array as="points">
              <mxPoint x="210" y="530" />
              <mxPoint x="200" y="530" />
              <mxPoint x="200" y="390" />
              <mxPoint x="233" y="390" />
            </Array>
          </mxGeometry>
        </mxCell>
        <mxCell id="VSxFvRO0NKnhs1YxXdcT-20" value="cumlesayar++" style="html=1;dashed=0;whitespace=wrap;strokeWidth=1;" vertex="1" parent="WIyWlLk6GJQsqaUBKTNV-1">
          <mxGeometry x="210" y="503.75" width="120" height="57.5" as="geometry" />
        </mxCell>
        <mxCell id="VSxFvRO0NKnhs1YxXdcT-27" style="edgeStyle=orthogonalEdgeStyle;rounded=0;orthogonalLoop=1;jettySize=auto;html=1;exitX=0;exitY=0.5;exitDx=0;exitDy=0;entryX=1;entryY=0.5;entryDx=0;entryDy=0;" edge="1" parent="WIyWlLk6GJQsqaUBKTNV-1" source="VSxFvRO0NKnhs1YxXdcT-24" target="VSxFvRO0NKnhs1YxXdcT-26">
          <mxGeometry relative="1" as="geometry" />
        </mxCell>
        <mxCell id="VSxFvRO0NKnhs1YxXdcT-28" value="Evet" style="edgeLabel;html=1;align=center;verticalAlign=middle;resizable=0;points=[];" vertex="1" connectable="0" parent="VSxFvRO0NKnhs1YxXdcT-27">
          <mxGeometry x="-0.5333" y="2" relative="1" as="geometry">
            <mxPoint x="9" y="-24" as="offset" />
          </mxGeometry>
        </mxCell>
        <mxCell id="VSxFvRO0NKnhs1YxXdcT-24" value="paragraf[i] == eposta" style="rhombus;whiteSpace=wrap;html=1;shadow=0;fontFamily=Helvetica;fontSize=12;align=center;strokeWidth=1;spacing=6;spacingTop=-4;" vertex="1" parent="WIyWlLk6GJQsqaUBKTNV-1">
          <mxGeometry x="370" y="620" width="130" height="110" as="geometry" />
        </mxCell>
        <mxCell id="VSxFvRO0NKnhs1YxXdcT-29" style="edgeStyle=orthogonalEdgeStyle;rounded=0;orthogonalLoop=1;jettySize=auto;html=1;entryX=0.441;entryY=1;entryDx=0;entryDy=0;exitX=0;exitY=0.5;exitDx=0;exitDy=0;entryPerimeter=0;" edge="1" parent="WIyWlLk6GJQsqaUBKTNV-1" source="VSxFvRO0NKnhs1YxXdcT-26" target="VSxFvRO0NKnhs1YxXdcT-11">
          <mxGeometry relative="1" as="geometry">
            <Array as="points">
              <mxPoint x="180" y="640" />
              <mxPoint x="180" y="380" />
              <mxPoint x="207" y="380" />
            </Array>
          </mxGeometry>
        </mxCell>
        <mxCell id="VSxFvRO0NKnhs1YxXdcT-26" value="epostasayar++" style="html=1;dashed=0;whitespace=wrap;strokeWidth=1;" vertex="1" parent="WIyWlLk6GJQsqaUBKTNV-1">
          <mxGeometry x="210" y="611.25" width="120" height="57.5" as="geometry" />
        </mxCell>
        <mxCell id="VSxFvRO0NKnhs1YxXdcT-30" style="edgeStyle=orthogonalEdgeStyle;rounded=0;orthogonalLoop=1;jettySize=auto;html=1;entryX=0.5;entryY=0;entryDx=0;entryDy=0;exitX=0.5;exitY=1;exitDx=0;exitDy=0;" edge="1" target="VSxFvRO0NKnhs1YxXdcT-33" parent="WIyWlLk6GJQsqaUBKTNV-1" source="VSxFvRO0NKnhs1YxXdcT-24">
          <mxGeometry relative="1" as="geometry">
            <mxPoint x="448" y="805" as="targetPoint" />
            <mxPoint x="444" y="725" as="sourcePoint" />
          </mxGeometry>
        </mxCell>
        <mxCell id="VSxFvRO0NKnhs1YxXdcT-31" value="Hayır" style="edgeLabel;html=1;align=center;verticalAlign=middle;resizable=0;points=[];" vertex="1" connectable="0" parent="VSxFvRO0NKnhs1YxXdcT-30">
          <mxGeometry x="0.1111" y="2" relative="1" as="geometry">
            <mxPoint as="offset" />
          </mxGeometry>
        </mxCell>
        <mxCell id="VSxFvRO0NKnhs1YxXdcT-35" value="Evet" style="edgeStyle=orthogonalEdgeStyle;rounded=0;orthogonalLoop=1;jettySize=auto;html=1;entryX=1;entryY=0.5;entryDx=0;entryDy=0;" edge="1" parent="WIyWlLk6GJQsqaUBKTNV-1" source="VSxFvRO0NKnhs1YxXdcT-33" target="VSxFvRO0NKnhs1YxXdcT-34">
          <mxGeometry x="0.1513" y="-10" relative="1" as="geometry">
            <mxPoint as="offset" />
          </mxGeometry>
        </mxCell>
        <mxCell id="VSxFvRO0NKnhs1YxXdcT-39" style="edgeStyle=orthogonalEdgeStyle;rounded=0;orthogonalLoop=1;jettySize=auto;html=1;exitX=0.5;exitY=1;exitDx=0;exitDy=0;entryX=1;entryY=0.5;entryDx=0;entryDy=0;" edge="1" parent="WIyWlLk6GJQsqaUBKTNV-1" source="VSxFvRO0NKnhs1YxXdcT-33" target="VSxFvRO0NKnhs1YxXdcT-38">
          <mxGeometry relative="1" as="geometry">
            <Array as="points">
              <mxPoint x="435" y="879" />
            </Array>
          </mxGeometry>
        </mxCell>
        <mxCell id="VSxFvRO0NKnhs1YxXdcT-40" value="Hayır" style="edgeLabel;html=1;align=center;verticalAlign=middle;resizable=0;points=[];" vertex="1" connectable="0" parent="VSxFvRO0NKnhs1YxXdcT-39">
          <mxGeometry x="0.174" y="-1" relative="1" as="geometry">
            <mxPoint as="offset" />
          </mxGeometry>
        </mxCell>
        <mxCell id="VSxFvRO0NKnhs1YxXdcT-33" value="paragraf[i] == sesli" style="rhombus;whiteSpace=wrap;html=1;shadow=0;fontFamily=Helvetica;fontSize=12;align=center;strokeWidth=1;spacing=6;spacingTop=-4;" vertex="1" parent="WIyWlLk6GJQsqaUBKTNV-1">
          <mxGeometry x="375" y="760" width="120" height="105" as="geometry" />
        </mxCell>
        <mxCell id="VSxFvRO0NKnhs1YxXdcT-36" style="edgeStyle=orthogonalEdgeStyle;rounded=0;orthogonalLoop=1;jettySize=auto;html=1;" edge="1" parent="WIyWlLk6GJQsqaUBKTNV-1" source="VSxFvRO0NKnhs1YxXdcT-34">
          <mxGeometry relative="1" as="geometry">
            <mxPoint x="190" y="340" as="targetPoint" />
            <Array as="points">
              <mxPoint x="150" y="761" />
              <mxPoint x="150" y="370" />
              <mxPoint x="190" y="370" />
            </Array>
          </mxGeometry>
        </mxCell>
        <mxCell id="VSxFvRO0NKnhs1YxXdcT-34" value="seslisayar++" style="html=1;dashed=0;whitespace=wrap;strokeWidth=1;" vertex="1" parent="WIyWlLk6GJQsqaUBKTNV-1">
          <mxGeometry x="210" y="732.5" width="120" height="57.5" as="geometry" />
        </mxCell>
        <mxCell id="VSxFvRO0NKnhs1YxXdcT-41" style="edgeStyle=orthogonalEdgeStyle;rounded=0;orthogonalLoop=1;jettySize=auto;html=1;entryX=0.291;entryY=1.014;entryDx=0;entryDy=0;entryPerimeter=0;" edge="1" parent="WIyWlLk6GJQsqaUBKTNV-1" source="VSxFvRO0NKnhs1YxXdcT-38" target="VSxFvRO0NKnhs1YxXdcT-11">
          <mxGeometry relative="1" as="geometry">
            <Array as="points">
              <mxPoint x="130" y="879" />
              <mxPoint x="130" y="360" />
              <mxPoint x="174" y="360" />
            </Array>
          </mxGeometry>
        </mxCell>
        <mxCell id="VSxFvRO0NKnhs1YxXdcT-38" value="sessizsayar++" style="html=1;dashed=0;whitespace=wrap;strokeWidth=1;" vertex="1" parent="WIyWlLk6GJQsqaUBKTNV-1">
          <mxGeometry x="210" y="850" width="120" height="57.5" as="geometry" />
        </mxCell>
      </root>
    </mxGraphModel>
  </diagram>
</mxfile>
